<?xml version="1.0" encoding="utf-8"?>
<!-- Generator: Adobe Illustrator 16.0.0, SVG Export Plug-In . SVG Version: 6.00 Build 0)  -->
<!DOCTYPE svg PUBLIC "-//W3C//DTD SVG 1.1//EN" "http://www.w3.org/Graphics/SVG/1.1/DTD/svg11.dtd">
<svg version="1.1" id="Layer_1" xmlns="http://www.w3.org/2000/svg" xmlns:xlink="http://www.w3.org/1999/xlink" x="0px" y="0px"
	 width="472px" height="286px" viewBox="0 0 472 286" enable-background="new 0 0 472 286" xml:space="preserve">
<g>
	<path fill-rule="evenodd" clip-rule="evenodd" fill="#00BEAB" d="M78.5,8h375c0,0,8.105-0.629,11.303,0.996
		c1.516,0.77,5.041,2.379,3.195,9.004v-0.015c-1.696,5.819-5.331,17.494-9.985,32.229c-5.2,16.467-11.673,36.755-18.137,56.966
		c-7.008,21.913-14.005,43.736-19.355,60.497c-5.688,17.819,30.56,112.823,30.56,112.823L401.04,248L351,215.5
		c-0.018,0-0.035,0-0.053,0s-0.035,0-0.053,0l-164.947,0.008L21,215.516l-2.711-0.37l-2.711-0.37
		c-4.438-1.019-7.34-2.944-8.819-5.727C5.28,206.267,4.742,202.449,6,198c0.172-0.608,3.992-12.603,9.59-30.139
		c5.382-16.858,12.406-38.839,19.41-60.748c6.864-21.471,13.709-42.873,18.969-59.32C59.662,29.996,63.5,18,63.5,18
		c1.248-2.919,2.872-5.607,5-7.5C70.628,8.607,72.281,8,78.5,8z"/>
	<path fill-rule="evenodd" clip-rule="evenodd" fill="#FFFFFF" d="M389.641,173.06c-2.42,9.38-10.549,13.69-18.08,13.94H67.171
		c-6.34-0.08-13.471-0.67-19.421-4.9c-5.029-3.563-7.577-8.851-7.638-14.099c-0.066-5.68,2.78-11.313,8.548-14.671
		c3.63-2.11,7.465-3.435,11.99-3.33c0.333,0.008,301.09,0,301.09,0c6.32,0.03,13.271,0.65,19.441,4.53
		c6.356,4.001,8.705,9.111,8.948,13.727C390.219,169.95,390.024,171.578,389.641,173.06z"/>
	<path fill-rule="evenodd" clip-rule="evenodd" fill="#FFFFFF" d="M237.547,125.41c-7.676-0.062-13.686-3.164-17.521-10.638
		c-4.656-9.071,1.531-20.292,10.82-23.28c3.005-0.968,6.076-1.016,9.187-1.015c49.941,0.021,99.883,0.034,149.826,0
		c11.56-0.008,19.115,7.995,19.6,16.757c0.539,9.75-8.078,18.259-19.09,18.256L237.547,125.41z"/>
	<path fill-rule="evenodd" clip-rule="evenodd" fill="#FFFFFF" d="M253.077,67c-7.665-0.062-13.673-3.24-17.536-10.704
		c-1.255-2.424-1.73-5.008-1.575-7.548c0.425-6.943,5.561-13.566,12.348-15.747c2.991-0.96,6.067-1.033,9.184-1.032
		c50.941,0.028,101.883,0.042,152.824,0.004c11.603-0.009,19.14,8.004,19.632,16.726c0.552,9.804-8.075,18.3-19.057,18.301H253.077z
		"/>
	<path fill-rule="evenodd" clip-rule="evenodd" fill="#FFFFFF" d="M78.547,125.41c-7.676-0.062-13.686-3.164-17.521-10.638
		c-1.133-2.208-1.624-4.543-1.584-6.856c0.013-0.722,0.077-1.442,0.189-2.156c1.009-6.387,5.894-12.235,12.216-14.269
		c3.005-0.968,16.958-9.993,20.068-9.992c49.941,0.021,71.208-26.59,121.151-26.624l-18.513,57.168
		c-1.858,7.577-9.037,13.448-18.184,13.446L78.547,125.41z"/>
	<path fill-rule="evenodd" clip-rule="evenodd" fill="#FFFFFF" d="M60.938,101.188c0,0,17.18-53.669,17.227-53.923
		c1.186-6.385,6.848-12.239,13.149-14.263c2.991-0.96,5.068-1.033,8.184-1.032c50.941,0.028,42.882,0.042,93.824,0.004
		c11.603-0.009,20.14,8.004,20.632,16.726c0.057,0.999,0.018,1.984-0.109,2.948c-0.009,0.068-0.025,0.139-0.048,0.212
		c-0.133,0.421-0.73,3.017-0.73,3.017L60.938,101.188z"/>
</g>
</svg>
